<svg id="cec77d00-7f97-4b6b-a402-d16b2156a211" data-name="Capa 1" xmlns="http://www.w3.org/2000/svg" width="2010.7" height="511.7" viewBox="0 0 2010.7 511.7">
  <title>Farmacias Peruanas</title>
  <g>
    <path d="M582.4-275h0c-54.1-62.6-149.1-69-211.1-14.1L247.6-179.6,124.2-289.1A148.3,148.3,0,0,0-85.1-276.6l-1.4,1.6h0a148.3,148.3,0,0,0,15,208.6L44,34.1a20.3,20.3,0,0,0,28.1-1.3L247.6-150.8,423.5,32.7A20.3,20.3,0,0,0,451.6,34L567.4-66.5C629-119.9,635.7-213.2,582.4-275Zm-37,170L435-.7,284.5-166.1l112.6-100a109.3,109.3,0,0,1,154.4,8.9c1.9,2.1,3.7,4.4,5.4,6.6h0c33.9,44.2,28.9,107.4-11.5,145.6Z" transform="translate(122.4 326.5)" style="fill: #e20715"/>
    <path d="M269.6-65.7l-28-28a10.4,10.4,0,0,0-14.6,0h0l-28,28a10.4,10.4,0,0,0,0,14.6h0l28,28a10.4,10.4,0,0,0,14.6,0h0l28-28a10.4,10.4,0,0,0,0-14.6Zm-35.3,31L210.6-58.4l23.7-23.8L258-58.4Z" transform="translate(122.4 326.5)" style="fill: #e20715"/>
    <path d="M271.2,22,249.7.6a7.8,7.8,0,0,0-11.1,0L217.1,22a7.9,7.9,0,0,0,0,11.2l21.5,21.4a7.8,7.8,0,0,0,11.1,0l21.5-21.5C273.9,30.1,273.7,25.3,271.2,22Zm-27,23.8L226,27.6,244.2,9.4l18.1,18.2Z" transform="translate(122.4 326.5)" style="fill: #868686"/>
    <path d="M91.8,51.1,133.6,9.3a9.2,9.2,0,0,1,13.2,0l41.8,41.8a9.2,9.2,0,0,1,0,13.2l-41.8,41.8a9.2,9.2,0,0,1-13.2,0L91.8,64.3A9.2,9.2,0,0,1,91.8,51.1Z" transform="translate(122.4 326.5)" style="fill: #868686"/>
    <path d="M296.6,62.6l39.9-39.8a10.7,10.7,0,0,1,15.2,0l39.8,39.8a10.9,10.9,0,0,1,0,15.2l-39.9,39.8a10.7,10.7,0,0,1-15.2,0L296.6,77.8a10.7,10.7,0,0,1,0-15.2Z" transform="translate(122.4 326.5)" style="fill: #868686"/>
    <rect x="285.3" y="-35.6" width="30.9" height="30.87" rx="5.2" ry="5.2" transform="translate(224.7 533.2) rotate(-45)" style="fill: #e20715"/>
    <rect x="217.2" y="80.1" width="29.1" height="29.1" rx="4.8" ry="4.8" transform="translate(123.4 518.1) rotate(-45)" style="fill: #e20715"/>
    <rect x="237.1" y="132.2" width="45.7" height="45.7" rx="5.1" ry="5.1" transform="translate(88.9 555.7) rotate(-45)" style="fill: #e20715"/>
    <path d="M795.1-248a13.8,13.8,0,0,1,5.6,1.2,13.5,13.5,0,0,1,4.5,3.3,15.4,15.4,0,0,1,3,4.9,16.3,16.3,0,0,1,1.2,6.2,15.7,15.7,0,0,1-1.2,6,15.4,15.4,0,0,1-3,4.9,13.5,13.5,0,0,1-4.5,3.3,13.8,13.8,0,0,1-5.6,1.2H720v50h58.1a12.5,12.5,0,0,1,5.7,1.3,13.5,13.5,0,0,1,4.7,3.5,16.9,16.9,0,0,1,3.2,5.1,18.3,18.3,0,0,1,1.1,6.1,17.3,17.3,0,0,1-1.1,6,14,14,0,0,1-3.2,4.7,14,14,0,0,1-4.7,3.2,15.6,15.6,0,0,1-5.7,1.1H720v55.6a17.8,17.8,0,0,1-1.1,6.1,16,16,0,0,1-3.2,4.9,12.7,12.7,0,0,1-4.7,3.2,13,13,0,0,1-5.6,1.1,12,12,0,0,1-5.6-1.2,14.7,14.7,0,0,1-4.6-3.2,15.2,15.2,0,0,1-3.1-4.8,17.8,17.8,0,0,1-1.1-6.1V-233.1a17,17,0,0,1,.8-5.1,13.8,13.8,0,0,1,2.5-4.8,13.9,13.9,0,0,1,4.4-3.6,14.2,14.2,0,0,1,6.7-1.4Z" transform="translate(122.4 326.5)" style="fill: #868686"/>
    <path d="M810.5-133.3a60.5,60.5,0,0,1,5.7-26.1,70.2,70.2,0,0,1,15.6-21.4,74.1,74.1,0,0,1,22.8-14.4,75,75,0,0,1,27.7-5.3,76.5,76.5,0,0,1,28,5.3A74.9,74.9,0,0,1,933-180.8a68.8,68.8,0,0,1,15.3,21.4,60.5,60.5,0,0,1,5.7,26.1v49.9a13.8,13.8,0,0,1-1.3,6,14.6,14.6,0,0,1-3.5,5,19,19,0,0,1-5.4,3.4,17.8,17.8,0,0,1-6.5,1.2,15.7,15.7,0,0,1-10-3.2,15.8,15.8,0,0,1-5.4-8.2,71.3,71.3,0,0,1-18.6,9.6,62.1,62.1,0,0,1-21,3.5,71.1,71.1,0,0,1-27.7-5.3,70.6,70.6,0,0,1-22.8-14.4,68.6,68.6,0,0,1-15.6-21.4A62,62,0,0,1,810.5-133.3Zm32.6,0a33,33,0,0,0,3.1,14.2,37.5,37.5,0,0,0,8.4,11.7,42,42,0,0,0,12.5,7.9,41.5,41.5,0,0,0,15.2,2.9,42.4,42.4,0,0,0,15.3-2.9,39.2,39.2,0,0,0,12.3-7.9,37.2,37.2,0,0,0,8.3-11.7,34.8,34.8,0,0,0,3-14.2,35.3,35.3,0,0,0-3-14.3,38,38,0,0,0-8.3-11.6,40,40,0,0,0-12.4-7.8,42,42,0,0,0-15.3-2.9,41,41,0,0,0-15.1,2.9,40.5,40.5,0,0,0-12.5,7.8,35.6,35.6,0,0,0-8.4,11.6A32.4,32.4,0,0,0,843.1-133.3Z" transform="translate(122.4 326.5)" style="fill: #868686"/>
    <path d="M1292.9-133.3a60.4,60.4,0,0,1,5.6-26.1,70.5,70.5,0,0,1,15.3-21.4,73.5,73.5,0,0,1,22.4-14.4,72.5,72.5,0,0,1,27.3-5.3,73.9,73.9,0,0,1,27.5,5.3,73.5,73.5,0,0,1,22.4,14.4,71.6,71.6,0,0,1,15.1,21.4,61.8,61.8,0,0,1,5.5,26.1v49.9a13.8,13.8,0,0,1-1.3,6,15.8,15.8,0,0,1-3.4,5A19.9,19.9,0,0,1,1424-69a17.3,17.3,0,0,1-6.4,1.2,15,15,0,0,1-9.8-3.2,15.5,15.5,0,0,1-5.3-8.2,72.8,72.8,0,0,1-18.3,9.6,60.8,60.8,0,0,1-20.7,3.5,69.5,69.5,0,0,1-27.3-5.3,69.9,69.9,0,0,1-22.4-14.4,70.5,70.5,0,0,1-15.3-21.4A61.9,61.9,0,0,1,1292.9-133.3Zm31.8.3a31.8,31.8,0,0,0,3,14.2,36.8,36.8,0,0,0,8.3,11.7,39.1,39.1,0,0,0,12.2,7.8,37.1,37.1,0,0,0,15,2.9,37.1,37.1,0,0,0,15-2.9,39.1,39.1,0,0,0,12.2-7.8,37.8,37.8,0,0,0,8.1-11.7,34.8,34.8,0,0,0,3-14.2,33.7,33.7,0,0,0-3-14.3,36.2,36.2,0,0,0-8.1-11.6,38.5,38.5,0,0,0-12.2-7.8,38.9,38.9,0,0,0-15-2.9,38,38,0,0,0-14.9,2.9,40.8,40.8,0,0,0-12.3,7.8,37.1,37.1,0,0,0-8.4,11.6,35.3,35.3,0,0,0-3,14.3Z" transform="translate(122.4 326.5)" style="fill: #868686"/>
    <path d="M1478.8-133.1h.2a32,32,0,0,0,2.8,13,42.2,42.2,0,0,0,8,11.6,41,41,0,0,0,11.8,8.4,37.2,37.2,0,0,0,14.7,3.4,40,40,0,0,0,13.8-1.8,44.6,44.6,0,0,0,13.3-7,61.8,61.8,0,0,1,5.3-3.6,19.7,19.7,0,0,1,6.2-2.5,17.8,17.8,0,0,1,6.9.1,19,19,0,0,1,7.7,4,14.5,14.5,0,0,1,3.9,5,15.8,15.8,0,0,1,1.2,6.1,17.1,17.1,0,0,1-1.5,6.3,20.8,20.8,0,0,1-4.3,5.9,63.9,63.9,0,0,1-22.3,13.5,78.5,78.5,0,0,1-27.2,4.6,76.7,76.7,0,0,1-28.4-5.1,75.3,75.3,0,0,1-23.3-14.1,68.1,68.1,0,0,1-15.7-21.2,61.4,61.4,0,0,1-5.7-26.3v-.3h-.1a61.8,61.8,0,0,1,5.7-26.4,67.8,67.8,0,0,1,15.7-21.4,76.7,76.7,0,0,1,23.3-14.3,76.8,76.8,0,0,1,28.4-5.2,86.6,86.6,0,0,1,27.2,4.4,61.3,61.3,0,0,1,22.3,13.4,22.9,22.9,0,0,1,4.3,5.9,13.6,13.6,0,0,1,1.6,6.2,12.8,12.8,0,0,1-1.2,6.1,14.7,14.7,0,0,1-4.1,5.1,17.5,17.5,0,0,1-7.6,4,13.4,13.4,0,0,1-6.9,0,20.7,20.7,0,0,1-6.2-2.5,61.8,61.8,0,0,1-5.3-3.6,44.1,44.1,0,0,0-13.3-6.8,42.8,42.8,0,0,0-13.8-1.6,36.7,36.7,0,0,0-14.5,3.4,42.5,42.5,0,0,0-11.9,8.3,42.2,42.2,0,0,0-8,11.6,31.3,31.3,0,0,0-2.9,13.1Z" transform="translate(122.4 326.5)" style="fill: #868686"/>
    <path d="M1590.4-237.7a16.9,16.9,0,0,1,1.5-7,19.4,19.4,0,0,1,4-5.8,19.7,19.7,0,0,1,6-3.8,20,20,0,0,1,7.2-1.4,20.2,20.2,0,0,1,7.3,1.4,19.7,19.7,0,0,1,6,3.8,16.6,16.6,0,0,1,4.1,5.8,16.9,16.9,0,0,1,1.5,7,16.2,16.2,0,0,1-1.5,6.9,15.1,15.1,0,0,1-4.1,5.6,18.3,18.3,0,0,1-6,3.9,20.2,20.2,0,0,1-7.3,1.4,20,20,0,0,1-7.2-1.4,18.3,18.3,0,0,1-6-3.9,18.5,18.5,0,0,1-4-5.6A16.2,16.2,0,0,1,1590.4-237.7ZM1623-83.2a14.3,14.3,0,0,1-1.2,5.8,13.9,13.9,0,0,1-3.3,4.6,14.3,14.3,0,0,1-4.9,3.2,13.9,13.9,0,0,1-6,1.1,13.6,13.6,0,0,1-6-1.1,13.8,13.8,0,0,1-5-3.2,14.1,14.1,0,0,1-3.4-4.6,14.3,14.3,0,0,1-1.2-5.8v-97.5a12.1,12.1,0,0,1,1.3-5.6,16.1,16.1,0,0,1,3.4-4.8,18.6,18.6,0,0,1,5-3.2,18.3,18.3,0,0,1,6.1-1.1,17.3,17.3,0,0,1,6,1.1,17.5,17.5,0,0,1,4.8,3.2,15.8,15.8,0,0,1,3.3,4.8,15.1,15.1,0,0,1,1.1,5.6Z" transform="translate(122.4 326.5)" style="fill: #868686"/>
    <path d="M1644-133.3a63.4,63.4,0,0,1,5.5-26.1,70.6,70.6,0,0,1,14.9-21.3,70.2,70.2,0,0,1,22-14.5,69.5,69.5,0,0,1,26.7-5.3,70.4,70.4,0,0,1,26.8,5.3,68.6,68.6,0,0,1,21.9,14.5,70.3,70.3,0,0,1,14.8,21.3,63.3,63.3,0,0,1,5.4,26.1v49.9a15.3,15.3,0,0,1-1.2,6,15.8,15.8,0,0,1-3.4,5,18,18,0,0,1-5.2,3.4,16.8,16.8,0,0,1-6.3,1.2,14.4,14.4,0,0,1-9.5-3.2,15.3,15.3,0,0,1-5.2-8.2,71.9,71.9,0,0,1-17.9,9.6,58,58,0,0,1-20.2,3.5,66,66,0,0,1-26.7-5.3,70,70,0,0,1-21.9-14.4,69.6,69.6,0,0,1-15-21.4A65,65,0,0,1,1644-133.3Zm31.1.3a34.8,34.8,0,0,0,3,14.2,39,39,0,0,0,8.1,11.7,38.2,38.2,0,0,0,12,7.8,35,35,0,0,0,14.6,2.9,35.7,35.7,0,0,0,14.7-2.9,37.8,37.8,0,0,0,11.9-7.8,38.7,38.7,0,0,0,8-11.7,36.4,36.4,0,0,0,2.9-14.2,35.2,35.2,0,0,0-2.9-14.3,35.9,35.9,0,0,0-8-11.6,36.1,36.1,0,0,0-11.9-7.8,35.7,35.7,0,0,0-14.7-2.9,35,35,0,0,0-14.6,2.9,39.4,39.4,0,0,0-12,7.8,36.2,36.2,0,0,0-8.1,11.6,35.3,35.3,0,0,0-3,14.3Z" transform="translate(122.4 326.5)" style="fill: #868686"/>
    <path d="M1831.2-122.9c-3.9-1.6-8-3.5-12.2-5.5a54.1,54.1,0,0,1-11.5-7.5,36.1,36.1,0,0,1-8.5-10.6,30.6,30.6,0,0,1-3.4-14.8,37.1,37.1,0,0,1,3.5-16.1,34.9,34.9,0,0,1,9.5-12.4,39.8,39.8,0,0,1,14.4-7.9,59.9,59.9,0,0,1,18.4-2.8,80.5,80.5,0,0,1,11.9.9,59.1,59.1,0,0,1,11.7,3,38.1,38.1,0,0,1,9.9,5.4,22.6,22.6,0,0,1,6.7,8,16.1,16.1,0,0,1,1.4,8.9,13.2,13.2,0,0,1-3,7.3,14.3,14.3,0,0,1-6.7,4.4,11.6,11.6,0,0,1-8-.7c-1.9-1.3-3.7-2.3-5.3-3.3a37.1,37.1,0,0,0-4.9-2.4,46.1,46.1,0,0,0-5.3-1.5,34.4,34.4,0,0,0-6.4-.4q-8.9,0-13.5,2.4a8.2,8.2,0,0,0-4.6,7.6,6.2,6.2,0,0,0,1.8,4.4,15.7,15.7,0,0,0,4.5,3.1,44.4,44.4,0,0,0,7.2,2.7l9.1,2.8a125.1,125.1,0,0,1,15.4,5.9,53.7,53.7,0,0,1,12.8,8.2,39.5,39.5,0,0,1,8.9,11.5,35.5,35.5,0,0,1,3.3,15.7,37.5,37.5,0,0,1-3.5,15.8,39.5,39.5,0,0,1-9.7,12.9,46.5,46.5,0,0,1-14.7,8.7,53.4,53.4,0,0,1-18.6,3.1,74.8,74.8,0,0,1-13.3-1.2,55.2,55.2,0,0,1-13.7-4,52.7,52.7,0,0,1-12.2-7.5,33.9,33.9,0,0,1-9-11.3c-2.3-4.6-3-8.6-2.2-12a12.9,12.9,0,0,1,5.4-8,14.2,14.2,0,0,1,10-2c4,.4,7.8,2.5,11.5,6a19.9,19.9,0,0,0,4.2,4,30.6,30.6,0,0,0,5.4,3.4,31.5,31.5,0,0,0,6.5,2.3,30.6,30.6,0,0,0,7.4.9,28,28,0,0,0,6.4-.8,19.1,19.1,0,0,0,5.3-2.2,10.9,10.9,0,0,0,3.7-3.4,8,8,0,0,0,1.4-4.5q0-3-3-5.4a42.7,42.7,0,0,0-7.3-4.6,77.4,77.4,0,0,0-9-3.7Z" transform="translate(122.4 326.5)" style="fill: #868686"/>
    <path d="M1056.5-194.6c-2.8-2.9-6.8-4.4-11.9-4.4h-.2a71.6,71.6,0,0,0-28.1,5.6A76.8,76.8,0,0,0,999-183.3v-1.3a13.4,13.4,0,0,0-13.5-13.3A13.4,13.4,0,0,0,972-184.6v52.7l1,3.6v46.9a14.2,14.2,0,0,0,1.3,6.1,16.1,16.1,0,0,0,3.4,4.8,19.1,19.1,0,0,0,5.1,3.2,16.7,16.7,0,0,0,6.2,1.2,15.2,15.2,0,0,0,5.9-1.2,18.6,18.6,0,0,0,4.7-3.2,17.5,17.5,0,0,0,3.2-4.8,16.2,16.2,0,0,0,1.2-6.1V-128a37.5,37.5,0,0,1,3.3-15.5,41.5,41.5,0,0,1,8.7-12.8,41.2,41.2,0,0,1,12.8-8.6,39.4,39.4,0,0,1,15.5-3.1h.3a16.7,16.7,0,0,0,6.2-1.2,17.2,17.2,0,0,0,5.1-3.3,15.2,15.2,0,0,0,3.5-4.9,15,15,0,0,0,1.3-6.2A14.9,14.9,0,0,0,1056.5-194.6Z" transform="translate(122.4 326.5)" style="fill: #868686"/>
    <path d="M1277-149.4a1.3,1.3,0,0,1-.1-.6,47.6,47.6,0,0,0-5.2-19.6,55.9,55.9,0,0,0-12.9-16.1,59.5,59.5,0,0,0-18.5-10.9,64.4,64.4,0,0,0-22.6-3.9,64.7,64.7,0,0,0-23.5,4.2,62.6,62.6,0,0,0-19.4,11.6,63.3,63.3,0,0,0-19.3-11.6,63.7,63.7,0,0,0-23.3-4.2,62.5,62.5,0,0,0-22.7,4.1,63,63,0,0,0-13.2,6.7,12.3,12.3,0,0,0-16.2-6.2,12,12,0,0,0-7.1,11.1V-82.2a13.5,13.5,0,0,0,1.4,5.9,15.6,15.6,0,0,0,4,4.8,24.5,24.5,0,0,0,5.7,3.2,19.9,19.9,0,0,0,6.8,1.2,17.4,17.4,0,0,0,12.1-4.4,13.8,13.8,0,0,0,5-10.7v-66.7a18.4,18.4,0,0,1,2-8.2,24.9,24.9,0,0,1,5.4-6.7,24.8,24.8,0,0,1,8.1-4.5,26.2,26.2,0,0,1,9.6-1.6,28.4,28.4,0,0,1,9.6,1.5,26.4,26.4,0,0,1,7.9,4.3,19.9,19.9,0,0,1,5.2,6.7,19.1,19.1,0,0,1,2.2,8.4v66.4a13,13,0,0,0,1.4,5.8,14.2,14.2,0,0,0,3.8,4.6,20.8,20.8,0,0,0,5.6,3.2,16.7,16.7,0,0,0,6.6,1.1,16.5,16.5,0,0,0,11.8-4.2,13.2,13.2,0,0,0,4.8-10.5v-65.9a18.5,18.5,0,0,1,2-8.3,22.3,22.3,0,0,1,5.4-6.8,27.8,27.8,0,0,1,8-4.6,26.7,26.7,0,0,1,9.7-1.6,27.1,27.1,0,0,1,9.3,1.5,26.4,26.4,0,0,1,7.9,4.3,21.1,21.1,0,0,1,5.4,6.5,21.9,21.9,0,0,1,2.3,8.3v66.4a12.7,12.7,0,0,0,1.5,6,14.3,14.3,0,0,0,3.8,4.7,17.8,17.8,0,0,0,5.7,3.2,18,18,0,0,0,6.9,1.3,16.5,16.5,0,0,0,6.6-1.3,16.4,16.4,0,0,0,5.4-3.2,14,14,0,0,0,3.7-4.7,13.9,13.9,0,0,0,1.4-6v-66.6Z" transform="translate(122.4 326.5)" style="fill: #868686"/>
    <path d="M858.8,88a30.3,30.3,0,0,0,5.2,9.5,33.9,33.9,0,0,0,7.8,7.3,33.3,33.3,0,0,0,9.7,4.6,37.7,37.7,0,0,0,11.1,1.6c9.8,0,17.5-2.5,23.1-7.6a18.9,18.9,0,0,1,8.1-3.5,15.1,15.1,0,0,1,7.3.6,10.6,10.6,0,0,1,4.3,2.6,13.4,13.4,0,0,1,3.2,3.9,14.6,14.6,0,0,1,2.1,4.8,15.8,15.8,0,0,1,.3,5.3,17.3,17.3,0,0,1-1.7,5.3,15.3,15.3,0,0,1-4.1,4.7,77.9,77.9,0,0,1-7.1,5.4,52.2,52.2,0,0,1-9.2,4.5,67.5,67.5,0,0,1-11.7,3.2,89,89,0,0,1-14.6,1.2,68.8,68.8,0,0,1-62.9-40.9,63.1,63.1,0,0,1-5.4-26,63.3,63.3,0,0,1,5.4-26.1,68.2,68.2,0,0,1,14.7-21.3,70,70,0,0,1,21.7-14.3,68.9,68.9,0,0,1,26.5-5.3,67.8,67.8,0,0,1,26.3,5.2,72.4,72.4,0,0,1,21.7,14.1,67,67,0,0,1,14.7,21A64.2,64.2,0,0,1,961,73.6,13.6,13.6,0,0,1,956.8,84c-2.8,2.7-6.5,4-11,4Zm70.4-26a30.4,30.4,0,0,0-5-10.4,33.8,33.8,0,0,0-8.1-7.9,38.8,38.8,0,0,0-10.5-4.9,42.4,42.4,0,0,0-12.3-1.6A39.4,39.4,0,0,0,881,39a37,37,0,0,0-10.4,5,34.9,34.9,0,0,0-8,7.8A31.8,31.8,0,0,0,857.8,62Z" transform="translate(122.4 326.5)" style="fill: #e20715"/>
    <path d="M1106,76.4a36.1,36.1,0,0,0,2.5,13.3,32.5,32.5,0,0,0,6.8,10.7,31.2,31.2,0,0,0,10.3,7.3,32.4,32.4,0,0,0,12.7,2.6,27.1,27.1,0,0,0,12.5-2.7,27.6,27.6,0,0,0,9.2-7.4,30.4,30.4,0,0,0,5.9-10.9A43,43,0,0,0,1168,76V23.8a14.3,14.3,0,0,1,1.2-5.8,14.7,14.7,0,0,1,3.3-4.8,15.4,15.4,0,0,1,4.7-3.3,13.7,13.7,0,0,1,11.2,0,16,16,0,0,1,4.5,3.2,12.9,12.9,0,0,1,3,4.8,17.1,17.1,0,0,1,1.1,5.9V75.7a72.2,72.2,0,0,1-4.3,25.2,65,65,0,0,1-12.1,20.6,57.1,57.1,0,0,1-18.6,14,54.8,54.8,0,0,1-23.6,5.1,56.6,56.6,0,0,1-24-5.1,60,60,0,0,1-19.5-13.9,65.4,65.4,0,0,1-13.1-20.4,64.5,64.5,0,0,1-4.8-24.9V23.7a16.2,16.2,0,0,1,1.1-5.8,15.2,15.2,0,0,1,3.1-4.8,13.2,13.2,0,0,1,4.6-3.2,13.4,13.4,0,0,1,5.6-1.2,13.1,13.1,0,0,1,5.6,1.2,12.7,12.7,0,0,1,4.7,3.2,15.5,15.5,0,0,1,3.2,4.8,16.2,16.2,0,0,1,1.1,5.8Z" transform="translate(122.4 326.5)" style="fill: #e20715"/>
    <path d="M1209.5,74a62.9,62.9,0,0,1,5.5-26,69.1,69.1,0,0,1,15-21.3,70.7,70.7,0,0,1,22-14.3,70.9,70.9,0,0,1,53.8,0,68,68,0,0,1,21.9,14.3A66.9,66.9,0,0,1,1342.5,48a61.4,61.4,0,0,1,5.5,26v49.6a15,15,0,0,1-1.2,6,14.6,14.6,0,0,1-3.5,5,17.2,17.2,0,0,1-5.1,3.3,15.5,15.5,0,0,1-6.3,1.3,15,15,0,0,1-9.6-3.2,16.1,16.1,0,0,1-5.3-8.2,75.3,75.3,0,0,1-17.9,9.6,61,61,0,0,1-20.3,3.5,70.2,70.2,0,0,1-48.8-19.7,69.1,69.1,0,0,1-15-21.3A62.4,62.4,0,0,1,1209.5,74Zm31.5,0a32.5,32.5,0,0,0,3,14.1,36.2,36.2,0,0,0,8.1,11.6,36.8,36.8,0,0,0,12,7.9,38.7,38.7,0,0,0,29.4,0,37.2,37.2,0,0,0,20-19.5,36.3,36.3,0,0,0,2.9-14.1,35.2,35.2,0,0,0-2.9-14.3,36.9,36.9,0,0,0-20-19.3,38.7,38.7,0,0,0-41.4,7.8,36.1,36.1,0,0,0-8.2,11.5A33.6,33.6,0,0,0,1241,74Z" transform="translate(122.4 326.5)" style="fill: #e20715"/>
    <path d="M1507.7,74a62.8,62.8,0,0,1,5.4-26,70.3,70.3,0,0,1,14.8-21.3,67.8,67.8,0,0,1,21.6-14.3,68.9,68.9,0,0,1,53,0A67,67,0,0,1,1638.6,48a63.1,63.1,0,0,1,5.4,26v49.7a15.7,15.7,0,0,1-1.2,6,14.9,14.9,0,0,1-3.4,4.9,17,17,0,0,1-11.3,4.6,14,14,0,0,1-9.4-3.2,15.3,15.3,0,0,1-5.2-8.2,70,70,0,0,1-17.6,9.6,59.3,59.3,0,0,1-20,3.5,66.2,66.2,0,0,1-26.4-5.3,68.6,68.6,0,0,1-36.4-35.7A62.3,62.3,0,0,1,1507.7,74Zm30.7,0a35.6,35.6,0,0,0,2.9,14.1,37.7,37.7,0,0,0,19.8,19.5,37.7,37.7,0,0,0,29,0,36,36,0,0,0,11.8-7.9,37.3,37.3,0,0,0,7.9-11.6,37.2,37.2,0,0,0,0-28.3,36.5,36.5,0,0,0-19.7-19.4,38.3,38.3,0,0,0-14.5-2.9,37,37,0,0,0-14.4,2.9,38.9,38.9,0,0,0-11.9,7.8,35.9,35.9,0,0,0-8,11.6,36.4,36.4,0,0,0-2.9,14.2Z" transform="translate(122.4 326.5)" style="fill: #e20715"/>
    <path d="M1692.5,84.4c-3.9-1.7-7.9-3.5-12-5.6a49.5,49.5,0,0,1-11.4-7.4,37.5,37.5,0,0,1-8.4-10.6,31.3,31.3,0,0,1-3.3-14.7,37.3,37.3,0,0,1,3.4-16.1,36.4,36.4,0,0,1,9.4-12.3,41.4,41.4,0,0,1,14.2-7.9,55.2,55.2,0,0,1,18.1-2.7,76.8,76.8,0,0,1,11.7.9,64.6,64.6,0,0,1,11.5,2.9,37.6,37.6,0,0,1,9.8,5.4,21.1,21.1,0,0,1,6.6,7.9,17,17,0,0,1,1.5,8.9,14.8,14.8,0,0,1-3,7.2,14.3,14.3,0,0,1-6.7,4.4,11.1,11.1,0,0,1-7.8-.7l-5.2-3.3a43,43,0,0,0-4.8-2.4,31.8,31.8,0,0,0-5.3-1.4,33.5,33.5,0,0,0-6.3-.5c-5.8,0-10.2.8-13.3,2.4a8.2,8.2,0,0,0-4.5,7.5,6.6,6.6,0,0,0,1.7,4.5,14.4,14.4,0,0,0,4.6,3.1,45.9,45.9,0,0,0,7,2.7l9,2.8a116.6,116.6,0,0,1,15.2,5.9,53.1,53.1,0,0,1,12.7,8.2,38.8,38.8,0,0,1,8.7,11.4,36.4,36.4,0,0,1,3.2,15.6,37.4,37.4,0,0,1-3.4,15.8,40,40,0,0,1-9.5,12.8,46.7,46.7,0,0,1-14.5,8.7,52.2,52.2,0,0,1-18.3,3.1,73.7,73.7,0,0,1-13.2-1.2,58.2,58.2,0,0,1-13.5-4,51.4,51.4,0,0,1-12-7.5,32.6,32.6,0,0,1-8.9-11.3q-3.4-6.7-2.1-12a12.3,12.3,0,0,1,5.3-7.9,14.6,14.6,0,0,1,9.8-2q5.9.8,11.4,6a21.6,21.6,0,0,0,4,4,37.7,37.7,0,0,0,5.4,3.4,30,30,0,0,0,13.6,3.1,26.5,26.5,0,0,0,6.3-.7,19.1,19.1,0,0,0,5.3-2.2,11.7,11.7,0,0,0,3.6-3.4,8,8,0,0,0,1.4-4.5q0-2.9-3-5.4a36.1,36.1,0,0,0-7.2-4.5,76.7,76.7,0,0,0-8.9-3.8Z" transform="translate(122.4 326.5)" style="fill: #e20715"/>
    <path d="M817.7-3.2a56.3,56.3,0,0,0-14.2-18.6,67.2,67.2,0,0,0-21-12.6A70.9,70.9,0,0,0,756.7-39H706a17.6,17.6,0,0,0-6,1,15.3,15.3,0,0,0-4.6,2.8,12.1,12.1,0,0,0-3.2,4.3,11.8,11.8,0,0,0-1.2,5.3V126.9c0,7.8,6.7,14.1,15,14.1s15-6.3,15-14.1V78h35.5a71.5,71.5,0,0,0,25.9-4.6A66,66,0,0,0,803.5,61a57.2,57.2,0,0,0,14.2-18.5,50.1,50.1,0,0,0,5.2-22.8A52.2,52.2,0,0,0,817.7-3.2ZM792.6,32a33,33,0,0,1-7.9,10.3,41.7,41.7,0,0,1-11.8,7.1A41.8,41.8,0,0,1,758.4,52H721V-12h36.6a40.2,40.2,0,0,1,14.2,2.6,38.4,38.4,0,0,1,11.5,7.2A33.5,33.5,0,0,1,791,8a26.2,26.2,0,0,1,2.9,12,26.1,26.1,0,0,1-2.8,12Z" transform="translate(122.4 326.5)" style="fill: #e20715"/>
    <path d="M1066.8,13.4c-3-2.9-7.2-4.4-12.7-4.4H1053a76,76,0,0,0-29,5.6,82.4,82.4,0,0,0-16.9,9.5,14.9,14.9,0,0,0-14.3-11.8c-8.2,0-14.8,7-14.8,15.5V76h.1c0,1.4-.1,2.7-.1,4.1v46.3a14.3,14.3,0,0,0,1.4,6.1,13.8,13.8,0,0,0,3.6,4.7,19.2,19.2,0,0,0,12,4.5,14.7,14.7,0,0,0,6.2-1.3,15.2,15.2,0,0,0,5.1-3.2,14.5,14.5,0,0,0,3.4-4.7,14.2,14.2,0,0,0,1.3-6.1V79.9a35.9,35.9,0,0,1,3.5-15.5,41.7,41.7,0,0,1,9.3-12.7,42.6,42.6,0,0,1,13.5-8.6,44.7,44.7,0,0,1,16.5-3.1h.3a18.4,18.4,0,0,0,6.6-1.2,19.2,19.2,0,0,0,5.5-3.3,16.3,16.3,0,0,0,3.7-4.9,14.4,14.4,0,0,0,1.4-6.2A14.8,14.8,0,0,0,1066.8,13.4Z" transform="translate(122.4 326.5)" style="fill: #e20715"/>
    <path d="M1482.5,46.9a65.7,65.7,0,0,0-12.4-20.8,56.7,56.7,0,0,0-18.6-14,55.4,55.4,0,0,0-58.6,7.5,12.4,12.4,0,0,0-23.9,4.5h0V63h.6a72.2,72.2,0,0,0-.6,9.2v53.5a15.8,15.8,0,0,0,4.3,10.8,13.2,13.2,0,0,0,4.6,3.2,12.9,12.9,0,0,0,5.5,1.1,11,11,0,0,0,5.3-1.1,11.6,11.6,0,0,0,4.4-3.2,13.2,13.2,0,0,0,2.9-4.8,17.6,17.6,0,0,0,1-6V72.3a39.7,39.7,0,0,1,2.3-13.6,34.6,34.6,0,0,1,6.3-11,27.6,27.6,0,0,1,9.6-7.3,27.9,27.9,0,0,1,12.4-2.6,25.8,25.8,0,0,1,11.9,2.6,29.2,29.2,0,0,1,9.5,7.2,33.8,33.8,0,0,1,6.4,10.6,36.9,36.9,0,0,1,2.7,13.1,9.1,9.1,0,0,0-.1,1.7v52.5a15.8,15.8,0,0,0,1.2,6.1,18.6,18.6,0,0,0,3.2,5,14,14,0,0,0,4.7,3.2,14.2,14.2,0,0,0,5.7,1.2,13.8,13.8,0,0,0,5.6-1.2,12.8,12.8,0,0,0,4.5-3.2,19.5,19.5,0,0,0,3-5,17.8,17.8,0,0,0,1.1-6.1V72.3A68.7,68.7,0,0,0,1482.5,46.9Z" transform="translate(122.4 326.5)" style="fill: #e20715"/>
  </g>
</svg>
